/* XPM */
static char *result[] = {
/* columns rows colors chars-per-pixel */
"32 32 47 1 ",
"  c #3C3323",
". c #3E342A",
"X c #403726",
"o c #41362E",
"O c #443A2D",
"+ c #483F2E",
"@ c #453B32",
"# c #493E35",
"$ c #4C4235",
"% c #4E443A",
"& c #504736",
"* c #51473D",
"= c #53493E",
"- c #59503F",
"; c #4F4440",
": c #514640",
"> c #554B42",
", c #584F44",
"< c #574C48",
"1 c #594E49",
"2 c #5B5146",
"3 c #5D534A",
"4 c #60574C",
"5 c #63594D",
"6 c #625751",
"7 c #665B52",
"8 c #685E54",
"9 c #6A5F5A",
"0 c #6B6156",
"q c #6E645A",
"w c #716857",
"e c #70675C",
"r c #73695D",
"t c #756B62",
"y c #796F64",
"u c #7A6F6B",
"i c #7B7165",
"p c #7E746A",
"a c #80776C",
"s c #82796C",
"d c #867C72",
"f c #897F74",
"g c #8B8275",
"h c #8D8379",
"j c #92887E",
"k c #968C82",
"l c #9D9389",
/* pixels */
"3&=wssy8>3t8 $$ O%>3*80ii@733:33",
"-$-800001>,r>+XX&=235udku%$$@.##",
"i-&-2>>>>5@,2=--5>327tifi7%337tt",
"w&$253>=>e%*40ws3$2>qtiat73370tp",
"$$4iq2:>%33350-g3$>%668q7=0=3>3q",
"--405>*>%5t3&4-y0=%$*=>57#r>337p",
"r4%%%1333tsr&48w01>,>38pt>63>>0t",
"gw3*#$>;*,8g5$2-q32723,th5>067hh",
"gw0=*@%;#<6t5424>,=73>=ulttf33ff",
"s8-&1;#o<9q6%4856037>>3pi3qi>$ph",
"423=<#;<3<19>,8dpt53*37q33yd1$0q",
"=0i3;@:1;6qr,50tp033>30760pf7:3;",
"4wt339919pdd6125,,qt93et3rtq3,73",
"0q0=6tt<uttd1;>r>>eppett>tt023tt",
"pie><<<#<9e9#10t3370fpe3*tq33qap",
"a04=3<3::16t1<3y>33>iiq3,q>@3yjh",
"g<:07%%=&&0w-w5wp37,0q0030@>>3hg",
"3<%>32>,&&5--w5wp,1ey00%8>%%10up",
"><$@33*--,4--5$&ey*27%*3h3%;1,3t",
"3<$*73-,-,-wiw$-tg,*>,7kp7$8t$>,",
"3%=30qq2,28ig0$30>77%ugpp0%$2>tt",
">-372rr=338yg3&-,*te>03=36p*3i0*",
">0eq582&2250iq001ty00>@>37g%303$",
"3iipi3%2-25-330$,,>3e%,><,7*7>6%",
"=0rtq33==,=-02i.%%%233.>>$3%22e>",
"$0e03=-&3-2202e7%%>%30<>00q=%<q>",
"$--,553$,%3>%3qp3$>$333>qpq3<0p0",
"&=&-8e0&=27=%0ipy$%*%$%>6t330tpq",
"-5--2-5-3r033quti<>3$%%>>3=70300",
"iw3-350437>,03076370$3*%2%332%3q",
"g5&-yiiw2=<$1:%<$%03%2<:0$7>=%,q",
"5-&wpiir73y.:%.$.$03>%27y.0%>><3"
};
