/* XPM */
static char *result[] = {
/* columns rows colors chars-per-pixel */
"32 32 168 2 ",
"   c #010000",
".  c #0B0000",
"X  c #140100",
"o  c #1B0200",
"O  c #230200",
"+  c #2C0300",
"@  c #240A02",
"#  c #2C0A02",
"$  c #340400",
"%  c #3B0300",
"&  c #340B01",
"*  c #3B0A00",
"=  c #251005",
"-  c #2C150A",
";  c #3D1002",
":  c #3A1209",
">  c #3C2113",
",  c #420500",
"<  c #4B0600",
"1  c #430B01",
"2  c #4C0C00",
"3  c #530500",
"4  c #5C0600",
"5  c #530C01",
"6  c #5C0D00",
"7  c #431204",
"8  c #4C1404",
"9  c #451807",
"0  c #4A1A05",
"q  c #441D0C",
"w  c #4C1A0C",
"e  c #521202",
"r  c #5D1201",
"t  c #531A04",
"y  c #5D1A04",
"u  c #610500",
"i  c #650F00",
"p  c #690800",
"a  c #641501",
"s  c #6C1300",
"d  c #641D05",
"f  c #6C1A02",
"g  c #741500",
"h  c #791701",
"j  c #731B03",
"k  c #7B1D02",
"l  c #4D210E",
"z  c #5D270C",
"x  c #542410",
"c  c #5F3218",
"v  c #5E3B1E",
"b  c #6F2304",
"n  c #6E250E",
"m  c #742305",
"M  c #7A2307",
"N  c #70260D",
"B  c #7F270B",
"V  c #7A2A0C",
"C  c #71310E",
"Z  c #6A2D15",
"A  c #712F13",
"S  c #663319",
"D  c #7F3817",
"F  c #7C3313",
"G  c #6F4628",
"H  c #7F4922",
"J  c #7C4A28",
"K  c #795230",
"L  c #831B00",
"P  c #8D1C01",
"I  c #822002",
"U  c #8C2302",
"Y  c #842905",
"T  c #892C06",
"R  c #822F0C",
"E  c #8C2F0D",
"W  c #942503",
"Q  c #942A01",
"!  c #9B2C04",
"~  c #8D3007",
"^  c #86350F",
"/  c #8E360D",
"(  c #8C3D0F",
")  c #93340A",
"_  c #9B3409",
"`  c #933F0E",
"'  c #9A3D0F",
"]  c #873B12",
"[  c #8B3B16",
"{  c #963E16",
"}  c #A12F04",
"|  c #A53906",
" . c #A93B07",
".. c #A33B0B",
"X. c #AF3D08",
"o. c #B23C00",
"O. c #9F4217",
"+. c #9D491C",
"@. c #964415",
"#. c #AD410D",
"$. c #B84406",
"%. c #BE4B0D",
"&. c #BC540E",
"*. c #AD4C13",
"=. c #A2471A",
"-. c #AA4412",
";. c #B34B12",
":. c #A5561B",
">. c #BD5313",
",. c #BD591B",
"<. c #B5541A",
"1. c #894721",
"2. c #8E4D2A",
"3. c #A85225",
"4. c #A35222",
"5. c #B55623",
"6. c #B65E2A",
"7. c #95623A",
"8. c #B16129",
"9. c #BC6A2C",
"0. c #AB6532",
"q. c #BA6733",
"w. c #BA6C3A",
"e. c #C04E0C",
"r. c #CB520E",
"t. c #C35912",
"y. c #C75E1F",
"u. c #CA5D16",
"i. c #CB631F",
"p. c #C35C21",
"a. c #C36B2D",
"s. c #D46929",
"d. c #D5712F",
"f. c #C36930",
"g. c #C96E35",
"h. c #C67533",
"j. c #CD7634",
"k. c #CD7E3E",
"l. c #D27E38",
"z. c #E47A26",
"x. c #BD7540",
"c. c #D6843B",
"v. c #E18A39",
"b. c #B88857",
"n. c #CA8546",
"m. c #CC8849",
"M. c #D68846",
"N. c #DD8D40",
"B. c #D48C50",
"V. c #D19658",
"C. c #DC9C5A",
"Z. c #E18E44",
"A. c #E59646",
"S. c #E49349",
"D. c #F6A24C",
"F. c #E3A55E",
"G. c #ECA85D",
"H. c #F0A652",
"J. c #F7AD5B",
"K. c #FFB95C",
"L. c #F5B25C",
"P. c #F2B870",
"I. c #FFCB7D",
"U. c #F4C387",
"Y. c #FFC880",
"T. c #FFD786",
"R. c #F6D394",
"E. c #FFF1A2",
/* pixels */
"X   t e i S.G.> f j a * . . O . $ R $ , .   o h.N.L.-.s w 1 , 2 ",
"      # O 1.K.S o * + o . .     . # 3 + O O s l.v.9.R ,       . ",
"          o Z .     o o             X   E g . n 6.X   .         ",
"$ . @ & X . . o     X   . .           . y @   o u o           o ",
"a . e p.+ . 1 $ * .     + X   O .   . .   X . ; X.+   .     X . ",
"k   & M   t W o + * X   # + o #     .   . o   t #.o   o 8 O   5 ",
"5 o $ %   t ! k m O .   o $ o .   . .   X     O $   . j W j . f ",
"*.o X . + ;.y . M ; . . $ O   o 1 a @     . .       t e.O 2 * ` ",
"y . .   + 8     + o .   , o   . h s & .     X # .   + Y @ X o W ",
"x   X o . .             o       X a X     O 3 j.F   @ . .   q U.",
"w.o   O 2 +             - m.v O 4 ' 4.  O % 3 [ Z.l .       G E.",
"A X . X , o         . . 8 f.0.< g M d.$ + + . O B.w.O       & 3.",
"3 O o O X o i 1 X     .   o o . . & 8 g 1 X   o O a 2         o ",
"o . X     $ 2 . .       o       .     . * ,       * O .         ",
"    o . X + 1 * . @ .   . 4.K . o o   X 4 7 $ 2 X       .   & @ ",
"  . 2 @ o   1 P $ g .   + i.8.h $ o   : g.$.5.W ;   O b.Z + 6 + ",
"o o # X . . , * 5 +.o   . g p 6 o     7.Y.&.S.* O + # s.9 X , r ",
"f *       . e o @.D.@     & 2 .       2.3...=.O   X . 6 a * $ M ",
"O s 2 2 Y r W _ z.0             l 8.7 ^ ] o o . .       * 6 r s ",
"# * 6 j k O.{ , 5       .     . j.<.y.>.f .           .       1 ",
"& .   o *.S.+.+       o O       n _ b @ O . . .       .   . . . ",
"        @ @ U k + .   . o .       X                   . . o     ",
"#           & o o .   . . . .                   o O O o O .   # ",
"L x J 9 t *     O $       . o X * .   . . .   C a.$ 1 , .   . f ",
"1 V G.M.o.y . o * +       . o X . . . o o     # n . r O     o $ ",
"    <.N .     . . w @   . o .         o 6 o     % L *       o s ",
"0 * r.7   O *     V.C..         X o   . a M   l D +   o     X ..",
"a.% , L 8 & f o   x 2.o     . + # o % ,  .f   n.J.O o h     o x.",
"$ .   * a r t.* o o < 6 1 + O < & o O 2 %.1 O h.H.B $ ~ 0 o   + ",
"  . o . .   7 . o 1 j U L 2     O 4   & z.M k c.D.S   n.T.1.    ",
"X . .     X 1 f o r O 5 ! 3   X d ,.a ~ / V %.F.I.b O =.A.k.l @ ",
"6   X .   e j T , b ) f T 3 % 2 2 ( >.} %   1 w.I.q.% f P.R.*.| "
};
