/* XPM */
static char *result[] = {
/* columns rows colors chars-per-pixel */
"32 32 213 2 ",
"   c #010000",
".  c #0C0100",
"X  c #130100",
"o  c #1C0100",
"O  c #190A05",
"+  c #1F1007",
"@  c #230200",
"#  c #2C0300",
"$  c #240903",
"%  c #2B0A02",
"&  c #330400",
"*  c #3B0300",
"=  c #330901",
"-  c #3B0A01",
";  c #3C1105",
":  c #2E1D12",
">  c #371C12",
",  c #29160C",
"<  c #430400",
"1  c #4C0300",
"2  c #440A01",
"3  c #4C0C01",
"4  c #520600",
"5  c #530B01",
"6  c #5B0C00",
"7  c #441203",
"8  c #4D1201",
"9  c #441C0C",
"0  c #4A1C09",
"q  c #541201",
"w  c #5C1301",
"e  c #5C1D05",
"r  c #501709",
"t  c #551C09",
"y  c #571B06",
"u  c #4E1D12",
"i  c #630D00",
"p  c #690D00",
"a  c #631401",
"s  c #6C1301",
"d  c #651B03",
"f  c #6B1A03",
"g  c #611E0C",
"h  c #741400",
"j  c #791700",
"k  c #731B02",
"l  c #7B1D02",
"z  c #432009",
"x  c #5B230C",
"c  c #58270D",
"v  c #4B2210",
"b  c #5B2911",
"n  c #6D2405",
"m  c #67270C",
"M  c #732203",
"N  c #7C2304",
"B  c #73240C",
"V  c #7B2B0D",
"C  c #752E0B",
"Z  c #7D340E",
"A  c #642713",
"S  c #7B2B12",
"D  c #6E361B",
"F  c #6A3415",
"G  c #733312",
"H  c #753A1A",
"J  c #583921",
"K  c #613923",
"L  c #7A4623",
"P  c #831D02",
"I  c #8C1E00",
"U  c #911F00",
"Y  c #832404",
"T  c #892302",
"R  c #832A05",
"E  c #8C2B06",
"W  c #812C0B",
"Q  c #932E05",
"!  c #9B2C02",
"~  c #922A05",
"^  c #8B3008",
"/  c #953205",
"(  c #9D3404",
")  c #91340C",
"_  c #9B350E",
"`  c #9D3A0C",
"'  c #91390E",
"]  c #8A3712",
"[  c #8B3C12",
"{  c #853D19",
"}  c #853816",
"|  c #9F3E15",
" . c #923A12",
".. c #A13506",
"X. c #A63F07",
"o. c #B33E06",
"O. c #97410E",
"+. c #84441C",
"@. c #8D4418",
"#. c #9C4412",
"$. c #9F4816",
"%. c #98431A",
"&. c #944C1E",
"*. c #AA430D",
"=. c #A1400A",
"-. c #B2440B",
";. c #B74C0C",
":. c #A34213",
">. c #A64A13",
",. c #AA4F1B",
"<. c #A64A15",
"1. c #B54F15",
"2. c #B94F13",
"3. c #AE551D",
"4. c #BB5313",
"5. c #BA561A",
"6. c #B8591C",
"7. c #BB601D",
"8. c #834722",
"9. c #874A27",
"0. c #924A22",
"q. c #9A4C22",
"w. c #944722",
"e. c #9D5323",
"r. c #985A2E",
"t. c #925732",
"y. c #A75620",
"u. c #AA5322",
"i. c #A15929",
"p. c #A95F2E",
"a. c #A95924",
"s. c #B35923",
"d. c #BC5F22",
"f. c #B45D29",
"g. c #AE5F31",
"h. c #A6632E",
"j. c #BF6020",
"k. c #BB662C",
"l. c #A66738",
"z. c #A66B39",
"x. c #A26737",
"c. c #B76731",
"v. c #BD6E33",
"b. c #B16A3B",
"n. c #BA723B",
"m. c #BB783C",
"M. c #C5550D",
"N. c #C25E1C",
"B. c #C15214",
"V. c #C4621D",
"C. c #CC671D",
"Z. c #D46115",
"A. c #D5671A",
"S. c #C66424",
"D. c #CF6C21",
"F. c #C66C2B",
"G. c #C2672A",
"H. c #D66E21",
"J. c #CB712C",
"K. c #D37327",
"L. c #C96F31",
"P. c #C37A3B",
"I. c #CA7737",
"U. c #D27F3C",
"Y. c #D47B34",
"T. c #9D6E42",
"R. c #D88338",
"E. c #E58734",
"W. c #BC8D5C",
"Q. c #CA884E",
"!. c #D58A44",
"~. c #D78748",
"^. c #D9914D",
"/. c #D99047",
"(. c #C48451",
"). c #D38E52",
"_. c #CB945B",
"`. c #D19253",
"'. c #DE9D5B",
"]. c #D89459",
"[. c #E18E42",
"{. c #EC9444",
"}. c #E9984A",
"|. c #F09942",
" X c #E19E54",
".X c #F7A44C",
"XX c #EEA454",
"oX c #EAA659",
"OX c #FAAC59",
"+X c #F7AA56",
"@X c #FFB658",
"#X c #FFB257",
"$X c #D59C61",
"%X c #D5A066",
"&X c #E6AA64",
"*X c #F0AB60",
"=X c #F4B266",
"-X c #FDB662",
";X c #FDBC65",
":X c #FBBB6A",
">X c #EBBB7B",
",X c #EEB972",
"<X c #F0B777",
"1X c #FABD70",
"2X c #FFC36D",
"3X c #FDC065",
"4X c #FFC776",
"5X c #FFCC7B",
"6X c #F4C174",
"7X c #FFD37C",
"8X c #EBC388",
"9X c #FFD283",
"0X c #FFE091",
/* pixels */
"*.k R P / Y.c.w.,X3X%.h F.S.< * k n 2 W s 1 o 0.}.'.u.Y.y   $ o.",
"- X o @ o G R.-X$XD./ I :X0Xj.3 . . = s Q s./ !.7XS.* ;     X Y ",
"4 * o       , G . w -.@ H Q.!.& # X d j `.=XT h.h.9   .       4 ",
"a @ 2 j.G         # 4 X o S I.-       . V S   o X     X X @   # ",
"a   m 4X8.g ,.M 6 *   % :.6X X}       . X 4 - a %   # # . o   @ ",
"a   y { & OX!.1 N $   X :.2X:.<           % 3 < @   9 F.8   . k ",
"4 @ ^ R * U.!.a.5.;   o 4 F :     X           @ w G v.I.* 3 . $ ",
"d * h 5.l n.`.<.1.@ @ a 2 X @ v o e.V X .   . @ a H.+.M * ~ X   ",
"N & # 6 2 2 j { OXV * * @ P 6 q.3.E a 3 .       # *   k f s o 2 ",
"@ . # o o   O.#Xx.w &   X E @ < E 8 o X X @ @ y a . @ o     @ Y ",
"7         . q I .       X &XD p u.D.&   $ ! ..v.1Xg X .       a ",
"8       # = @ @ O     . a [.U.( ! F.v.6 w ) = < U. .    .   o e ",
"E & * < # X.] 7 X o . o # & k l @ y [ & w #   X 1 i   o - X ` M.",
"W - [.^.b %.#Xu.t.V * X q o & k s n   % 1 @.W.7 a @   5 * < 1._ ",
"q   b.@X.X] `.&X-X] i o q S P.B @ ( 7 1 E E.1X| 6 & . * q < ^ *.",
"M > | q m X N A.;.! @     e.L.+.o / W l %.` d.v.i * @ i.<X8X6.M.",
"2 A q.  @   % % X s O . < (.h.<.q @   a.R.R.&X2...6 6 =XoX;Xe.E ",
"1 f.$         X X o . . X H ~.& X k i s.v.b c % Y j 1 +.2XXXA f ",
"1 K.c . .   a Z.1..       X X . 7 {.:.1.m   o * 4 6 < * &.s.q @ ",
") ! d = & R 4.n ..8     .   % X E '.>X! - o 2 6 6 o @ 3   # 6 @ ",
"b o q :.S.OXa   .   . o # 3 i o w E.z.  % . X . X   @ 3 % q o 5 ",
"    & . y N.a o X .   * -.^   .   ] j .       .     @ *   . # h ",
"' X 3 # X f d   - Y 3 X ; ; .   % *.9 # X       X g ,.I.J n s :.",
"N.@ * s a 8 3 o a Z.a .   .     p..Xn 1 o     % ` e.3.U. X4.p 7.",
"R o = - 7 . . 6 k d *   X &     r x a Y 7     0 %.  3 ].k.G # i ",
"X X             .   6 C - < = X * w.t.s e o     & O   _.$X* y @ ",
"2 I.n.9           +.XX=.w #   . @ + 7 X * ..4 R C p @ > u 2 q $ ",
"^./ }.5X9.    .   H K   Q w # +.{   b & n M.T XXn.# % & & 1 * T.",
"a.* d ` <.# :.7   @ < B ! ).+XE.5.#.K.@ u ].k '.r.  O G.S X   L ",
"< 8 q ` e ; C.& 2 & s h # B.&.3 C.H.@ 1 I.'.  8 R   Z .X&XG X 3 ",
"* Y 4.@   o P.{.M @   < & p 1 1 B >.3.N.3._ 3 8 5 X 1 x }.5X7   ",
"Q ..V.* - a.c.V.[ g 2 z._ ( l P # 1 ).9Xl h h %.>Xt.8.m.[.z.# Z "
};
