/* XPM */
static char *result[] = {
/* columns rows colors chars-per-pixel */
"32 32 207 2 ",
"   c #010000",
".  c #0C0100",
"X  c #130100",
"o  c #1C0200",
"O  c #1E0803",
"+  c #1C150E",
"@  c #230300",
"#  c #2C0200",
"$  c #2C0A02",
"%  c #330300",
"&  c #3B0500",
"*  c #340B01",
"=  c #3B0A01",
"-  c #341103",
";  c #3E190A",
":  c #32190C",
">  c #440300",
",  c #4A0500",
"<  c #440A01",
"1  c #4A0A00",
"2  c #520300",
"3  c #5B0300",
"4  c #530C00",
"5  c #5C0C00",
"6  c #441302",
"7  c #4A1203",
"8  c #4C1903",
"9  c #461D0B",
"0  c #551402",
"q  c #5C1402",
"w  c #531A03",
"e  c #5D1A04",
"r  c #5A1D0D",
"t  c #630400",
"y  c #640D00",
"u  c #6A0D00",
"i  c #631201",
"p  c #6C1301",
"a  c #651A05",
"s  c #6C1B02",
"d  c #601E08",
"f  c #751401",
"g  c #7A1400",
"h  c #731C02",
"j  c #7A1B01",
"k  c #4D220E",
"l  c #52210D",
"z  c #58210E",
"x  c #4E2916",
"c  c #592612",
"v  c #5B341B",
"b  c #64270C",
"n  c #692609",
"m  c #712204",
"M  c #7D2204",
"N  c #7F2807",
"B  c #772A0C",
"V  c #7D260F",
"C  c #7D3009",
"Z  c #602C14",
"A  c #6B2A13",
"S  c #742B11",
"D  c #693316",
"F  c #793717",
"G  c #643E23",
"H  c #7A4526",
"J  c #841D00",
"K  c #8C1D00",
"L  c #842302",
"P  c #8C2403",
"I  c #852C05",
"U  c #8B2A05",
"Y  c #822D0B",
"T  c #8A2F09",
"R  c #952B04",
"E  c #9D2D02",
"W  c #8D3209",
"Q  c #86340B",
"!  c #943205",
"~  c #9A3305",
"^  c #92320A",
"/  c #9F3A0A",
"(  c #99390A",
")  c #8B3511",
"_  c #853914",
"`  c #853513",
"'  c #933C12",
"]  c #9A3E13",
"[  c #903412",
"{  c #A12D02",
"}  c #A13706",
"|  c #AA3505",
" . c #A03708",
".. c #A23E0C",
"X. c #AA3D0B",
"o. c #A63F15",
"O. c #8A411B",
"+. c #964017",
"@. c #94431B",
"#. c #9A461E",
"$. c #9B4715",
"%. c #AF440E",
"&. c #B4490D",
"*. c #B54409",
"=. c #AC4512",
"-. c #A14619",
";. c #A34716",
":. c #B14917",
">. c #B95113",
",. c #BD5A1D",
"<. c #B75717",
"1. c #8B4020",
"2. c #964E26",
"3. c #995427",
"4. c #915D37",
"5. c #855635",
"6. c #A45124",
"7. c #AB5B23",
"8. c #B65D24",
"9. c #B15E2D",
"0. c #9A6535",
"q. c #AE642E",
"w. c #BA632C",
"e. c #B1622D",
"r. c #A76031",
"t. c #A6693C",
"y. c #B36633",
"u. c #BF6C33",
"i. c #BB723B",
"p. c #B77038",
"a. c #C55211",
"s. c #C4631D",
"d. c #CE671C",
"f. c #D1681F",
"g. c #C36421",
"h. c #C56C2C",
"j. c #C66828",
"k. c #D46C24",
"l. c #D96D20",
"z. c #CB722B",
"x. c #D57424",
"c. c #C96F32",
"v. c #C1753B",
"b. c #C57333",
"n. c #D47D34",
"m. c #D27E3C",
"M. c #D97D34",
"N. c #E17727",
"B. c #AE6F41",
"V. c #A37044",
"C. c #C67D42",
"Z. c #D9802E",
"A. c #CF803E",
"S. c #D4843F",
"D. c #D8823B",
"F. c #DB893C",
"G. c #D68234",
"H. c #EE8830",
"J. c #E48B3B",
"K. c #E28732",
"L. c #BB814A",
"P. c #C5854C",
"I. c #C88649",
"U. c #D28443",
"Y. c #D38A46",
"T. c #DD8D43",
"R. c #D28C4D",
"E. c #DB8C49",
"W. c #CD8850",
"Q. c #CB905B",
"!. c #DF9A52",
"~. c #D09858",
"^. c #DB995C",
"/. c #ED9C47",
"(. c #EE9B4B",
"). c #E59648",
"_. c #E39D52",
"`. c #FAA248",
"'. c #EDA353",
"]. c #E4A35D",
"[. c #EBAA5C",
"{. c #ECA856",
"}. c #F1AD5E",
"|. c #FAA954",
" X c #FBB059",
".X c #F6B359",
"XX c #D3A86E",
"oX c #EFAE60",
"OX c #EBAF6A",
"+X c #E3A761",
"@X c #F1AD66",
"#X c #EBB36A",
"$X c #F2B262",
"%X c #FFBF6B",
"&X c #FCB461",
"*X c #FABD73",
"=X c #FAC16D",
"-X c #FFCA77",
";X c #FFCD7A",
":X c #F3C77E",
">X c #F9C482",
",X c #FFD785",
"<X c #FFDC86",
"1X c #FED88D",
"2X c #FFE49A",
"3X c #FFEFA3",
"4X c #FFFFB4",
/* pixels */
"L._ J I @.y.U.a R.v.> n >Xr   X 5 q.I F.1XF.j.[.OX_./. X9 . 0 L ",
". X o 8 7.R.J./ m...o & l.b     . X X #.$XOX3XoXU.OX) ;     O 1 ",
". .     . * : - 0 @ . s | < .         . v.m.0._ /.S       . X @ ",
"0   . 8 7       o . X h @ 4 h o         2.2.. > J 4 X     X # < ",
"p   & a...X o X #     @   $ R p         > y < u o X o X @ o o < ",
"i   b m y 7.R o 1 =   # o & * o       . o 1 1 $ 8 . & ;.~ < a s.",
"a .   Z u.m.V > g 5   % 1 1 @           X o   * | f =.C.L { &.<.",
"<.o . U.4X|.` @ h e   * 1 # # < < L e .   @ 4 * & h _ N > J J >.",
"j @ = ' 0.w.@ l H.w X X X . . @ y R 1 . s i & X     . m < i 2 } ",
"z   X .   1 u #.q.K o           = P o   $ =   q 0   o     . F oX",
"p.. @ =   . / / o # X   X $.9 . ! j s # < .   8 W   . . . . 4.-X",
"B   % s .   q ( M X @   * %XU.R Z.V.).R 1 .   . U s o X O 3 y.).",
"p #.] > # h Y I < o & 5 4 Z ) R -.B.D J p * O = `.*XA > # % l z ",
"p ,.oX^.a 1 3.N T y i < p . 5 e #     6.]._.J 5 D v . 7 1.@ . . ",
"~ ! 7.g.%.T z.m.h.L M @   3.m.o O s 4 d..X$Xy.:.% .   - k.6 % h ",
"2 b.,Xf.i X n o.P k.-   o i.D.] > f % 8.G.%.-.P.X   . W.(.R.r 3 ",
"U [ Y.1..   7 > o 4 .       X * * . # O.w.v.U.j.@   . P.!.<XP.B ",
"^ J 4 # . . .   < &               < P E [./.p.& o     1 N.=XR.s.",
"f y J M 5 J U # % .             x @X( E W - X @       X 7 G a f ",
"`.F o 7 P K.,.# # .     X     . S.G.>X=.i     @ X     .     X j ",
"9.k . > ! T.r & %     . & =   C &.Y.XX# & X X         . o @ . > ",
". o * X o X   % < o   @ * @   6 > ] Q   @               o #   X ",
"X o           . X *   X X   .   a 8 . .         X O $ & 4 %     ",
"-.t.v @ w X     4 N     . . . . E.5.  . o     n r c c.M.X.> . 0 ",
"] Q.(.w.L M = * J 2       o o   + 7 u > *     & O   I j.M > * J ",
"t T ;X2.  a %.O @ 0 . X % # .     . * * i # < t %   # P # . h  .",
"u b.<Xi.y q X   o W < # <     .       . @ y E <.q.5 o y # . # J ",
"+.) t.T.J.M   . o = o   * $ 7 X.8   A d b f E  X~.> j *.= X 4  .",
"Y .   & s h J @     . X R T u / x.r.'.T. X` % $.(   0 |.D   . Q ",
". .     @ . 6 X     < i ~ &.# . U.;Xh.*X.Xb.5 ' s.> J _.}.9     ",
"= o @ .     . # < 0 o < >.w   o H J.<.2X].&.X./.h.g t y.E.a.% * ",
"=.0 y o . z 8.f %.! t z.e.. . % 4 D.{.#XU.J / M.].W.3.Y.$X$.> X."
};
