/* XPM */
static char *result[] = {
/* columns rows colors chars-per-pixel */
"32 32 166 2 ",
"   c #010000",
".  c #0B0000",
"X  c #130100",
"o  c #1B0200",
"O  c #240200",
"+  c #2B0300",
"@  c #240801",
"#  c #2B0B02",
"$  c #340400",
"%  c #3A0400",
"&  c #340A02",
"*  c #3B0B01",
"=  c #291309",
"-  c #351203",
";  c #3D1101",
":  c #3E1A0A",
">  c #440400",
",  c #4B0500",
"<  c #440C01",
"1  c #4B0B00",
"2  c #530600",
"3  c #5B0500",
"4  c #530C00",
"5  c #5A0C00",
"6  c #431204",
"7  c #4B1202",
"8  c #4E1C05",
"9  c #471B0B",
"0  c #4B1D0B",
"q  c #531404",
"w  c #5C1201",
"e  c #561E05",
"r  c #5B1C05",
"t  c #541908",
"y  c #600400",
"u  c #630D00",
"i  c #690F00",
"p  c #631401",
"a  c #6C1501",
"s  c #621B03",
"d  c #6C1B03",
"f  c #741500",
"g  c #7A1700",
"h  c #741A02",
"j  c #7A1E02",
"k  c #44210F",
"l  c #52250C",
"z  c #5F220C",
"x  c #5A2312",
"c  c #5C391D",
"v  c #62230A",
"b  c #6E2F0B",
"n  c #722204",
"m  c #7B2205",
"M  c #73250C",
"N  c #742C0A",
"B  c #6B2E15",
"V  c #742D15",
"C  c #663112",
"Z  c #6E3E1C",
"A  c #753517",
"S  c #7E3815",
"D  c #77401C",
"F  c #784E27",
"G  c #841D01",
"H  c #8B1E01",
"J  c #8C2301",
"K  c #832A05",
"L  c #8B2B06",
"P  c #822A0A",
"I  c #892E0B",
"U  c #942602",
"Y  c #942C04",
"T  c #9F2F05",
"R  c #942D0B",
"E  c #86340E",
"W  c #8E340A",
"Q  c #893A0F",
"!  c #933507",
"~  c #93340D",
"^  c #9C3308",
"/  c #93380C",
"(  c #9B3504",
")  c #8C3412",
"_  c #923C12",
"`  c #913818",
"'  c #A33304",
"]  c #AB3504",
"[  c #A03A03",
"{  c #AC3907",
"}  c #A23B0D",
"|  c #8D4111",
" . c #87441E",
".. c #994313",
"X. c #9D4C1F",
"o. c #A2420E",
"O. c #B1460B",
"+. c #BA450D",
"@. c #B54A0F",
"#. c #BA4B0C",
"$. c #A74010",
"%. c #A44815",
"&. c #A1451A",
"*. c #A44C1D",
"=. c #A84D1F",
"-. c #B74B14",
";. c #B04E19",
":. c #AE5319",
">. c #BF5817",
",. c #B3561A",
"<. c #BA571B",
"1. c #BE5A1C",
"2. c #864322",
"3. c #9F4B21",
"4. c #9C5628",
"5. c #A75227",
"6. c #AE5F25",
"7. c #A75F2F",
"8. c #AD5929",
"9. c #B65B26",
"0. c #A25B31",
"q. c #BD6021",
"w. c #B0612B",
"e. c #C1520C",
"r. c #C45A16",
"t. c #CC5B16",
"y. c #C1591C",
"u. c #C6601B",
"i. c #CC6F25",
"p. c #D46E2C",
"a. c #C36E32",
"s. c #C77330",
"d. c #CD7431",
"f. c #CA7A38",
"g. c #E77921",
"h. c #A57546",
"j. c #BD7E41",
"k. c #DC8028",
"l. c #D4813B",
"z. c #DF8B3E",
"x. c #EE943E",
"c. c #CB8243",
"v. c #C6834D",
"b. c #D58742",
"n. c #D98C45",
"m. c #DB844B",
"M. c #D59352",
"N. c #DA9857",
"B. c #E8954A",
"V. c #E8994F",
"C. c #EC9B45",
"Z. c #E29753",
"A. c #E39A50",
"S. c #E99F52",
"D. c #F2A24B",
"F. c #ECAA5B",
"G. c #F0A253",
"H. c #FFB75E",
"J. c #FFB95A",
"K. c #EFB56A",
"L. c #FBBF6F",
"P. c #F5BC70",
"I. c #FFC76F",
"U. c #FFC677",
"Y. c #FFDA8A",
"T. c #F7D594",
/* pixels */
"X   ; 1 g A.F.: _ R h 7 o . o . o p $ 4 X   X w.f.D.r.! t * 1 w ",
"      + + Z H.B * t > + O .       + 5 + o O 5 a.D.9.I 5       . ",
"          X v .     $ + .           X   P h X M *..   X       . ",
"O . X # X . . o     o . . .         .   t #   O 3 X           . ",
"5   < -.% . 5 4 7 .     + o   + .   . .   o . ; { +   .     . . ",
"p   # n   b +.O , 4 O   % 1 # <   . X   . X   8 -.+   X ; X   > ",
"1 X 1 ,   C t.@.*.O .   o 1 O .   . X   . .   o * . . h U s   q ",
"L O o X % -.n & =.6 X X < +   o < K *       .       6 +.O < O h ",
"p . .   + <     , o X . 5 @   o H J 1 .   . X X     O d O . X f ",
"9   O + X .             +       X 1 .     O , %.r   O .     # n.",
"3.X   $ p %         . . = c.c O > W |   O , 3 m b.: X .     l J.",
"d X X O p +           o * 8.4., 2 m y.+ $ $ X # Z.f.O       o ` ",
"3 O o $ o + j 4 X         . .   . O 6 g 1 X   o , L 7 .       o ",
"o . X .   1 p X X       o       .     . < 4       6 O .         ",
"    $ $ $ % 1 <   o .   . 0.F . O O   o y < > d X       .   * + ",
"    < $ O   $ H % u .   # B.d.H % o   & a.#.9.^ < . o h.V > 4 $ ",
". . X X .   % < w X.X   X ( H a X     D U.k.G.$ + % + p.0 O , 1 ",
"p *       . * o ..x.@     6 h .       S ` / ) O X o . a K r $ w ",
"O a % < K 1 J } g.;             - Q & E N . X . .       7 d < 4 ",
"@ % % f G *.&.2 d .             ,.$.] ^ a X . . .         .   $ ",
"#     O q.A.=.%       X O       0 L 7 X O . . .       .   .   . ",
"    .   = O ( ( < .   O + o       .                 . . X o     ",
"-   .       < O o o   . X o .                   X & + X % .   - ",
"m - v 6 8 7 .   % 4 .     X O X O .   . X .   e <.1 1 1 o   . K ",
"1 w <.u.#.r   O 4 > .     X O X . . . O o     # M X d +     X $ ",
"X   J p X .   . . < o   . O X . .   . X 1 X     , Y ;       X G ",
"x % ] <   O %     j.M..         o + . . 4 h   k A $   o     X 1.",
"m.% $ j 7 $ s X   l 2.O .   . & + o O O J d   c.G.o O g     o v.",
"1 .   < p 1 i.6 O o u d 5 < $ u $ X + O H 4 % s.n.h % $.8 X   * ",
"  . X X .   s o + q L ] U d .   O a   $ { h L l.D.C . N.Y. .    ",
"o   .     . s / O j % p ' u . o n >.n L w v ] b.L.h $ 5.K.l.k O ",
"a   o .   d W :.u M %.P P , % 2 q N #.U +   % 7.I.8., m P.T.;.O."
};
