/* XPM */
static char *result[] = {
/* columns rows colors chars-per-pixel */
"32 32 205 2 ",
"   c #010000",
".  c #0C0100",
"X  c #130100",
"o  c #1B0100",
"O  c #160B06",
"+  c #1D0A04",
"@  c #240300",
"#  c #2B0200",
"$  c #250902",
"%  c #2D0B02",
"&  c #230F09",
"*  c #330300",
"=  c #3C0400",
"-  c #330B01",
";  c #3B0B02",
":  c #221007",
">  c #2F1004",
",  c #2E1508",
"<  c #25130B",
"1  c #351002",
"2  c #3B1206",
"3  c #311208",
"4  c #3B1108",
"5  c #311D11",
"6  c #420500",
"7  c #4B0500",
"8  c #440A01",
"9  c #4B0B01",
"0  c #550500",
"q  c #530A00",
"w  c #5B0C00",
"e  c #441204",
"r  c #4B1304",
"t  c #421B0B",
"y  c #441804",
"u  c #5C1201",
"i  c #5D1B05",
"p  c #551F0C",
"a  c #630C00",
"s  c #6B0F01",
"d  c #651200",
"f  c #6B1300",
"g  c #661C03",
"h  c #621E08",
"j  c #6D1C07",
"k  c #711601",
"l  c #7A1500",
"z  c #721A02",
"x  c #7B1C02",
"c  c #5D210A",
"v  c #53260F",
"b  c #4E2B18",
"n  c #5B2B16",
"m  c #64260C",
"M  c #6A2208",
"N  c #712306",
"B  c #772907",
"V  c #702009",
"C  c #7C260B",
"Z  c #722D0C",
"A  c #7F2504",
"S  c #73320F",
"D  c #6A2C13",
"F  c #622F17",
"G  c #702C11",
"H  c #6C3517",
"J  c #673419",
"K  c #7D3512",
"L  c #7B3A1A",
"P  c #7C3C17",
"I  c #7D441F",
"U  c #6D4C2E",
"Y  c #734221",
"T  c #7A4522",
"R  c #72492A",
"E  c #861D00",
"W  c #8B1F00",
"Q  c #901D01",
"!  c #822304",
"~  c #8B2402",
"^  c #852807",
"/  c #832C0A",
"(  c #922B04",
")  c #8D330B",
"_  c #84330A",
"`  c #97370D",
"'  c #99370F",
"]  c #8F3E17",
"[  c #843E1A",
"{  c #8B3C1A",
"}  c #853617",
"|  c #963610",
" . c #983C17",
".. c #A02B00",
"X. c #A53909",
"o. c #A23E11",
"O. c #84431C",
"+. c #8C451C",
"@. c #944014",
"#. c #9B4515",
"$. c #93451A",
"%. c #9D451B",
"&. c #93491C",
"*. c #9C4A1D",
"=. c #AC410C",
"-. c #B3490E",
";. c #B2430A",
":. c #A84110",
">. c #A3441A",
",. c #A64A1D",
"<. c #AD4E1C",
"1. c #AD4913",
"2. c #B34D13",
"3. c #B84E13",
"4. c #AA521E",
"5. c #A5511C",
"6. c #B25317",
"7. c #B55019",
"8. c #BB5217",
"9. c #8B4A26",
"0. c #984E20",
"q. c #964D24",
"w. c #8A5028",
"e. c #855128",
"r. c #9A562A",
"t. c #8F5E30",
"y. c #925D34",
"u. c #AE5522",
"i. c #A0592F",
"p. c #B45B23",
"a. c #B95F25",
"s. c #B15A29",
"d. c #9C673A",
"f. c #A8602F",
"g. c #BC6C2F",
"h. c #B56327",
"j. c #A06031",
"k. c #A86430",
"l. c #A76739",
"z. c #BE6D33",
"x. c #BA6734",
"c. c #AE703D",
"v. c #BE7135",
"b. c #BF7A3C",
"n. c #C8500C",
"m. c #C2591C",
"M. c #C55612",
"N. c #CD6118",
"B. c #C45F22",
"V. c #C36B2D",
"C. c #CB6C2C",
"Z. c #C86727",
"A. c #CE732D",
"S. c #DD7524",
"D. c #C36D33",
"F. c #C57032",
"G. c #CA7133",
"H. c #C37A3D",
"J. c #CD7C3B",
"K. c #C87838",
"L. c #D27733",
"P. c #B47C47",
"I. c #D4843E",
"U. c #DC863D",
"Y. c #DD8A3F",
"T. c #E48A39",
"R. c #E18230",
"E. c #F08A36",
"W. c #BA8558",
"Q. c #CB8345",
"!. c #CF8C49",
"~. c #D38444",
"^. c #D88640",
"/. c #D58B4A",
"(. c #DB934C",
"). c #C48450",
"_. c #D79558",
"`. c #E28C42",
"'. c #E59144",
"]. c #E9974D",
"[. c #E49A4E",
"{. c #EB9E4D",
"}. c #E89846",
"|. c #F69C40",
" X c #E79753",
".X c #E29851",
"XX c #F7A048",
"oX c #ECA452",
"OX c #EEAC5D",
"+X c #FCA758",
"@X c #F8AA58",
"#X c #FCB15B",
"$X c #CFA46A",
"%X c #D3A469",
"&X c #DCA168",
"*X c #E9AC66",
"=X c #EBB16D",
"-X c #EBB166",
";X c #FBBC6A",
":X c #F6B866",
">X c #FFC97E",
",X c #FFCE81",
"<X c #FECC8F",
"1X c #FDD58A",
"2X c #FFDB8E",
/* pixels */
"i X   X @ ; -.B f ,.{.^.%.d ~ 9 6 o   .       o @ q q = h h.b.L ",
". .         _ +   O.#X .#   u @   . o             X * # X     . ",
"X         . ^ o X ` '.=     o .   - z.&         .     .       X ",
"6           @ w o @ / ; ; 6 X X   g +XR         . . . $ @     # ",
"X       X X - z $.e = $ l # a ~.P.- Y +         o = o f $       ",
"      # X g |.V.' {.,.  X m m.4.G.-     O F $   * a #   o .     ",
".   X f . & G.7.D.*XQ.  o  .*X(.k . @   , Z.g   @ X     6 o     ",
"_.z.o X * } 0.).OX2.^.- u 7 V  X%Xj.C.c.O % +       o 6 o     t ",
"q.f.w.  k X.[.1X_.&XQ.6 q & 0 j *Xv.Z.#Xe.          * 6     * /.",
"h.H.n X o # b.;X;XQ.W.o . o X   - y L D.V.*         o r     o D.",
"b >   . * f A.*.#.=Xx.o   s.H   O l.9.{ 6.a.h .   + g a .   o r ",
"      $ E o.OXi b >X+.# # r.C.~ x ^.,.o L ]. X# [ I.3.D         ",
"    . z - & ~.}.=XJ . . . . ; ) 2   = s / D.U # E 7 ! U.o       ",
"X X       . = : X               .     X X o     6 / 2.T.o       ",
"* %   y.W.v.@..             + 3 #         . # f ( 0.:.T       X ",
"    o <X,Xu.+XQ.    # [ 3 @ V.R.F.@   . 9.7 o i N.0 # @ # Z ] 2 ",
"      n L.+.J t..   @ O.X O.B.l G o   . [ =.N i 8.g . $ C m i.<.",
"@       X .       .       y E # X         Z n.;.7 @   J K.* z D.",
"o     r @     % z o         X A *.        . @ o         s.E.`.$.",
"X     i -   = ( ( o             v .     X .       + 2   9 9.v 6 ",
"X       * # s.@.    # X .         X     .       o ! x ^ .   X 8 ",
"        .   %X-XS i w # o         @ .           u W G .X-   X . ",
"    X X     H {.S.M.a o X   .           . # .   g |.:X1XZ.d.4 o ",
"@   X 8 o   # E a f 8 o     X X       . X 6 . . j D.(.%XT 2Xq.7 ",
"=   o C.<.@ = W q q 8 X     . X   . .           f # 4 K 3 w.i X.",
"D   5 #Xh.@ X # q l o     . X X     . . 6 #     9 9   t V.I.J.;X",
"u   X n O X o   . q u - o * o . @ o X 6 q ;   . ; @   * r.y.T [.",
") o . X     . .     ( E . = * @ X   . o 4 A.. o a 8 * ~ o   o M.",
"| o   X X   X = *./ A. .p g.-.E X + X   o o.J   @ >.j @       M ",
"o . .       8 z.~.T.K.,.3.`.$.    q 1     m Y   l.^.#.o # m @ # ",
"            T ;XE h.x #.<.B.H   @ g 9           H.!.J.9 p.C.m.0.",
"L   . # -   L ;X-XD.} a.u.oX%.a 6 f 9 .     . o ; l.F @ !.2.(.{."
};
