/* XPM */
static char *result[] = {
/* columns rows colors chars-per-pixel */
"32 32 219 2 ",
"   c #010000",
".  c #0C0100",
"X  c #130100",
"o  c #1C0200",
"O  c #1C0B05",
"+  c #140B06",
"@  c #230200",
"#  c #2D0300",
"$  c #240A03",
"%  c #2D0D04",
"&  c #230F08",
"*  c #330400",
"=  c #3B0300",
"-  c #360A01",
";  c #3E0B01",
":  c #2D160A",
">  c #2C1104",
",  c #331404",
"<  c #34150A",
"1  c #3B1A0A",
"2  c #381709",
"3  c #3F2515",
"4  c #430600",
"5  c #490200",
"6  c #430C02",
"7  c #4C0B00",
"8  c #540C00",
"9  c #5C0E00",
"0  c #451203",
"q  c #4B1403",
"w  c #461A07",
"e  c #41150A",
"r  c #4B1C0B",
"t  c #491C08",
"y  c #541302",
"u  c #5B1602",
"i  c #5C1A05",
"p  c #551B08",
"a  c #6C0D00",
"s  c #640B00",
"d  c #710A00",
"f  c #621201",
"g  c #6B1301",
"h  c #641A03",
"j  c #6F1B02",
"k  c #6D1D08",
"l  c #721500",
"z  c #751C03",
"x  c #7A1B02",
"c  c #48210E",
"v  c #55220B",
"b  c #5E240A",
"n  c #482815",
"m  c #522512",
"M  c #552B13",
"N  c #592914",
"B  c #51321D",
"V  c #63260D",
"C  c #69220A",
"Z  c #6B260B",
"A  c #732504",
"S  c #7A2304",
"D  c #7D2B0C",
"F  c #7B270B",
"G  c #7F310C",
"H  c #622D12",
"J  c #692E1A",
"K  c #6E2F12",
"L  c #702C11",
"P  c #6B311A",
"I  c #673519",
"U  c #7C3415",
"Y  c #7C3A16",
"T  c #7B3719",
"R  c #76391B",
"E  c #5F3D23",
"W  c #7B411D",
"Q  c #6C4525",
"!  c #774825",
"~  c #8B1D00",
"^  c #831B00",
"/  c #862501",
"(  c #8C2402",
")  c #832C06",
"_  c #8D2A02",
"`  c #842B0A",
"'  c #8F2E0B",
"]  c #902C04",
"[  c #992D07",
"{  c #8D370C",
"}  c #88350D",
"|  c #953104",
" . c #9D3C0C",
".. c #92350D",
"X. c #853312",
"o. c #8A3D14",
"O. c #833C1A",
"+. c #873B16",
"@. c #943411",
"#. c #953E16",
"$. c #9A3D15",
"%. c #A63503",
"&. c #A33E0D",
"*. c #A93F11",
"=. c #89421C",
"-. c #8F4F1F",
";. c #9D4514",
":. c #9A431A",
">. c #98491A",
",. c #9E501D",
"<. c #AD4107",
"1. c #B3450B",
"2. c #B24C0F",
"3. c #BE510F",
"4. c #AA4413",
"5. c #AB4B13",
"6. c #A94E1B",
"7. c #A54D1A",
"8. c #B44E15",
"9. c #AB511B",
"0. c #B3531C",
"q. c #BD561B",
"w. c #BC5C1D",
"e. c #BC5517",
"r. c #884D26",
"t. c #944B21",
"y. c #954924",
"u. c #9B5322",
"i. c #93552A",
"p. c #9C5A2D",
"a. c #98552A",
"s. c #8E5A33",
"d. c #975B31",
"f. c #A94D20",
"g. c #A55224",
"h. c #AB5623",
"j. c #AD5A26",
"k. c #A45A2D",
"l. c #AA5B2A",
"z. c #A0542A",
"x. c #B25825",
"c. c #A15A34",
"v. c #9C663C",
"b. c #976233",
"n. c #A8632E",
"m. c #B3632C",
"M. c #BC652D",
"N. c #BC6B2F",
"B. c #B86124",
"V. c #A56838",
"C. c #B36B34",
"Z. c #BD6D33",
"A. c #B56B35",
"S. c #B6713B",
"D. c #BD733C",
"F. c #BC7137",
"G. c #C1490F",
"H. c #C35918",
"J. c #C36422",
"K. c #C66A2A",
"L. c #CA712D",
"P. c #D97A2E",
"I. c #C36E31",
"U. c #C37234",
"Y. c #CB7534",
"T. c #CE7B39",
"R. c #C87738",
"E. c #D97B33",
"W. c #D97E39",
"Q. c #D37E39",
"!. c #BB7942",
"~. c #A96B42",
"^. c #C77C44",
"/. c #C7813D",
"(. c #DF8232",
"). c #DA833A",
"_. c #D6843B",
"`. c #F4872F",
"'. c #E48A3B",
"]. c #E38834",
"[. c #CD8444",
"{. c #C9844C",
"}. c #CB8A4C",
"|. c #DB8B44",
" X c #DB8E49",
".X c #D58846",
"XX c #D7914D",
"oX c #DD924A",
"OX c #CC8B51",
"+X c #DA9958",
"@X c #E08D41",
"#X c #E3934A",
"$X c #E59A4D",
"%X c #ED994F",
"&X c #E99746",
"*X c #F19847",
"=X c #E09A59",
"-X c #E79851",
";X c #D8A15B",
":X c #F1A44C",
">X c #ECAA5D",
",X c #E4A157",
"<X c #FDAC55",
"1X c #F2AA58",
"2X c #FFB659",
"3X c #DAA56A",
"4X c #E6A863",
"5X c #EDB56C",
"6X c #F3B267",
"7X c #FFBC69",
"8X c #F4B76B",
"9X c #F1BB71",
"0X c #F9B970",
"qX c #F0B36D",
"wX c #FDC06B",
"eX c #FCC575",
"rX c #FFD174",
"tX c #FFD989",
"yX c #F1C587",
/* pixels */
"' 4 = +.[.1.%.g.U.k.7.&.<   !.+X.     r L       # 4 X # * Z.&.R.",
"] * o a.>X&.%.J..Xr = R.|.h e.x.v       . .       > 5.C.k &X[.W.",
"z M.^.T.yX9X| G %   o m.h.K.4.' C o               w 7X,XT v k.T ",
"o z $XP.^.9X,.. #     p.x.>Xk.X . X X $ .       .   B p X   . o ",
") / / i.+.`.!     .   u.` |.v.      S 3.8 #       . . =       o ",
"|.G D   M s.Y   : .   q +XI.6 w   X ( f o x 0     o k.R       X ",
"r.4.* 1 C 6 3XOXW.%     m $ # k   w 9.=   0 h . +.V._.OX      . ",
"h z   M g.q.OXtXS.        < :. .+ 7 J.2.V g o * q.*X#Xt.      = ",
"7.>   & '.l m.-X.X+   1 K S.4X4.i 5 h.;.D l 6 X o / ) . .     . ",
"o X     * H./.< I .   -.Y.O.#XY.j.q u ` _ l.O     # = .     % > ",
"A . o     $   E 9..   ! *XOXZ._.y.. b :.Y.P.7     . X   X h *.].",
"].9 | D       c H     +.8XV . F H $ =.0X^.a 6 4 # .   . x.+XX h ",
"#X( ( 6XS.r         X J ^.* X .       ! e . X u o F a.  I 7XQ u.",
"9XD.M.Z.T %X$         p F * *                     - F = i l.8.e.",
"[.I.:X7.h.C.X         2 4.# .               . .   * # o I +Xh.l.",
"8.w.eX>Xa.o     .     v U o   X o     X   O F.v.@ | * R 4 7.#.z.",
"=X+X~.J l.! o . X   X @ X   r %Xv     .   2 t.6.^.+XR.|.6 i.m.9 ",
"J @..   7 V $           X n r.Q +           s.1XeXL.H.{ u.R r   ",
"= a z o X .           p m.h.I             % x.$.Z.~ T.0XwXA..   ",
" .@ # .         q o . 0.).+X3X%           & 4Xa.' ~ l :.T.oX+.^ ",
"x X           < 2Xp.. B.k.>X+X.             J  X6.<.X.~ @XV.#.( ",
"o X @ @ < 2   1 {.m . m._ Y.[..   6 7       5 %.;.U.^.&X8.    o ",
"X 4 a e.Z.>Xn X o.i . F E.oX@.a.- u 3.O.: # g ( ;.&Xu., .       ",
"j * . I g.'.B c rX3Xs oX}.$XY.$Xr.# i.$ r.%.8 @   >.{         o ",
"=     . L U @ % '.U./ (.z Z.eX9X5.S.N Z m.*XV.M b.C.M.m . p   X ",
"u ; e b F @   X f f   A [ d I.=X/ f.K.v.. } _.6XW.8 s.{.@ i   # ",
"` a 1.1.| o.X . o       *   n (._ p.^.; u / =.L.D.D.i S.E.i 4 y ",
"a ` P.S 6X<X:.o $     Q n.# q &X>.Z.3 X h - 0 k o . O < 1 . o # ",
"y.D.=.9.m.) E.b       .X<Xe 5 ^ Z.Y.p         X           o X . ",
"B._.XX>X0X,.' -.I 0 O 8 1   o 0..Xp.r                     .   X ",
"@X_.>X4XM.V.X ) *X#XR.W O   n 1X^.X * ; X @     - # .         * ",
"m.x.:.L.R.8 X D L.U.r $Xp.  y XX!   w 8.y *     S u       : >.0."
};
