/* XPM */
static char *result[] = {
/* columns rows colors chars-per-pixel */
"32 32 206 2 ",
"   c #010000",
".  c #0B0100",
"X  c #130100",
"o  c #1B0200",
"O  c #170801",
"+  c #1B0902",
"@  c #190F08",
"#  c #230200",
"$  c #2B0300",
"%  c #210A03",
"&  c #2B0B01",
"*  c #340300",
"=  c #3C0400",
"-  c #340B02",
";  c #3C0B02",
":  c #2C1105",
">  c #2B150A",
",  c #24170C",
"<  c #341105",
"1  c #3A1103",
"2  c #32140B",
"3  c #3F210E",
"4  c #440300",
"5  c #4B0500",
"6  c #430B01",
"7  c #4C0C01",
"8  c #570600",
"9  c #540C00",
"0  c #5A0E00",
"q  c #451304",
"w  c #4D1505",
"e  c #4D1A05",
"r  c #481709",
"t  c #421A0B",
"y  c #46180A",
"u  c #541503",
"i  c #591402",
"p  c #531A06",
"a  c #571C0A",
"s  c #611302",
"d  c #6A1400",
"f  c #6A1B04",
"g  c #751C03",
"h  c #7B1A01",
"j  c #4B230F",
"k  c #54220C",
"l  c #5F2B0F",
"z  c #432E1E",
"x  c #482816",
"c  c #542A12",
"v  c #5C2B14",
"b  c #5E3A1D",
"n  c #672408",
"m  c #6C250C",
"M  c #642A0E",
"N  c #6C2C0C",
"B  c #752305",
"V  c #792004",
"C  c #712608",
"Z  c #772C08",
"A  c #7B290B",
"S  c #642D13",
"D  c #6A2D12",
"F  c #6D2511",
"G  c #742D12",
"H  c #792D10",
"J  c #6C3415",
"K  c #66381F",
"L  c #633317",
"P  c #723413",
"I  c #7C3616",
"U  c #753C1B",
"Y  c #7A3F1B",
"T  c #693E23",
"R  c #703F20",
"E  c #793E23",
"W  c #774625",
"Q  c #7F502D",
"!  c #795836",
"~  c #801600",
"^  c #841D00",
"/  c #842201",
"(  c #882500",
")  c #8B2A02",
"_  c #822C06",
"`  c #942602",
"'  c #932A05",
"]  c #8E330C",
"[  c #873205",
"{  c #9F3807",
"}  c #99330A",
"|  c #993305",
" . c #812C11",
".. c #843614",
"X. c #833C19",
"o. c #883C18",
"O. c #8D3F15",
"+. c #993F10",
"@. c #963815",
"#. c #A83A0A",
"$. c #A33F11",
"%. c #8E451E",
"&. c #86471E",
"*. c #9A4214",
"=. c #954519",
"-. c #9A4A1E",
";. c #934819",
":. c #A9450F",
">. c #A44D1B",
",. c #A74918",
"<. c #B24E15",
"1. c #AC541A",
"2. c #B3541C",
"3. c #B75315",
"4. c #B7470B",
"5. c #824C29",
"6. c #884C25",
"7. c #974A24",
"8. c #84542D",
"9. c #8E562C",
"0. c #9A552A",
"q. c #9C5A2B",
"w. c #965729",
"e. c #9B5A30",
"r. c #A64F23",
"t. c #AC5321",
"y. c #A85528",
"u. c #A55B2B",
"i. c #B35A23",
"p. c #B35E2C",
"a. c #BA5B21",
"s. c #A85F32",
"d. c #976032",
"f. c #986230",
"g. c #AA622F",
"h. c #B36128",
"j. c #BC6A2D",
"k. c #BB6027",
"l. c #AD6430",
"z. c #B36A35",
"x. c #BD6E37",
"c. c #BC743C",
"v. c #B8733A",
"b. c #CA5D1F",
"n. c #CA6215",
"m. c #CF671D",
"M. c #C6601E",
"N. c #D2631B",
"B. c #E27D1F",
"V. c #C05F23",
"C. c #C36B2C",
"Z. c #C86927",
"A. c #CD732B",
"S. c #D6772B",
"D. c #C47535",
"F. c #C97434",
"G. c #CC7739",
"H. c #CD7C3E",
"J. c #C4783C",
"K. c #D47634",
"L. c #D47B34",
"P. c #D47A38",
"I. c #E07D2D",
"U. c #9C6840",
"Y. c #BA7C49",
"T. c #C67941",
"R. c #CE833E",
"E. c #D88138",
"W. c #E38B39",
"Q. c #EF9A3F",
"!. c #BD864E",
"~. c #C78747",
"^. c #CC8142",
"/. c #CE8F4F",
"(. c #CA874C",
"). c #D58745",
"_. c #CF904D",
"`. c #DB974C",
"'. c #C58753",
"]. c #CE9452",
"[. c #DF9855",
"{. c #D99758",
"}. c #E48E40",
"|. c #E1944E",
" X c #E9974A",
".X c #E49E52",
"XX c #F69C48",
"oX c #EDA356",
"OX c #ECA95D",
"+X c #E5A65B",
"@X c #F6A957",
"#X c #F7B35F",
"$X c #D7A86E",
"%X c #E2AC6A",
"&X c #EAA965",
"*X c #F4AE62",
"=X c #FEB867",
"-X c #F9B567",
";X c #FFC76A",
":X c #FDC374",
">X c #FEC47B",
",X c #FFD276",
"<X c #FBC981",
"1X c #FFD48A",
"2X c #FFDD96",
"3X c #FFE493",
/* pixels */
"  o # 6 u.,XQ   i P.x - 7   .     . X .     W T.~.$ *.S . - V + ",
".       - b O   - 2               u #.7     p P.T   o           ",
"] - & : $                     z 5.= ; = = $ o l 3           & ..",
"2.H.K.2.N . X                 ! @X- # _ b.p           X X   X ].",
"$ q.6.  &   o $ #       o       h Z.oX&Xx._...#       X   . R ) ",
"k       X w '.+XA.J.6   X       X ,.3XI f :XA.-.I p o     < >.Y.",
"$ X o # . W *X<XT.X.X   X X   .   a h %.x.OX'.g.c &       . 8 i.",
"9.X .   ; 6 # C B -     o X   $ d *   S =X*. Xf.              c.",
"r.* . . $ o     e X X . X     X 7 X   . a j.@X9.    t l.2   S &X",
">.o # 4 o X           .                 5 n.S.7.  . C.L._.=.F.C.",
"o     X # o         # o           X # * H.W.B.:.o % @Xt.*X=.e.Y ",
"X .     X         . = ; X         . 5 h m.| #.3.6   b G.8.o X # ",
"9 -   . .   X . X . . y ;     + >   . ; ( h 4 d X     X       - ",
"X X       o $       . y 7.k   w.-XT     X i $               o X ",
"          J |.!.6 & $ A G.u.P ^.D.X.. J [ %         @ + o   -.s.",
"z 9.. . N &.h.;XA.N.6 j oXw.6 T C r t oXy.2.    o X Y.@.X   Y &X",
">X-.X o g z.`.W..XL.0  .2.^.v         D.:X[.W - = @.:.-     n  X",
"j.5.# o.F H F.m D 5 # # X # &   : .   > c > S - o c Z A - P 9 - ",
"_.|.a.Z.-Xq .             .   8.XXu.                  o y.&X. , ",
"k * j.' @X&           .   X . q.L.(.>   .       .   X o #.D   D ",
"    . k Q .               X   O g.v.1.&               k $.+.a   ",
"                          .     v.v s e             X 0.}.O...o ",
"%                         o   - B _ i       % o   . ^  X%X+X,.' ",
"N q.H -.&.O           .   .   + +           & - o . Y.2X&Xq.- T.",
"u x A +.Z.N             o                       .   /.p.4 .   y ",
"o   8 $ 4 8     P 0.    X               & t       $ ) ^   . g n.",
"X X ` g 9 f .   k q..                 # l.K.f..       g o   q 4.",
"U.  & V 4           . $ +     .   e - ;.n $X*Xa.] 6 6 | -   $ @.",
"H.x             .   . 9 -       - g :.3.^..X%XZ.h.7 i / o X # = ",
"=.2                 o P o .     1 1.<.` } * {.L.p     | g X   q ",
"X         X .     o 0.h.$ .   .   N e o 5 E 1XE.4 . 1 ).g..   X ",
"$ ; ; . 1 X.%   o z.|.i.@..     .           8.*Xc.o /. XJ.,.= 6 "
};
