/* XPM */
static char *result[] = {
/* columns rows colors chars-per-pixel */
"32 32 213 2 ",
"   c #010000",
".  c #0B0000",
"X  c #130100",
"o  c #1B0200",
"O  c #1E0A02",
"+  c #100803",
"@  c #230200",
"#  c #2B0200",
"$  c #230C02",
"%  c #2D0900",
"&  c #330400",
"*  c #3C0400",
"=  c #340B02",
"-  c #3D0B01",
";  c #2B1307",
":  c #25140B",
">  c #2D1B0D",
",  c #38190A",
"<  c #341F13",
"1  c #3A2013",
"2  c #430400",
"3  c #4C0500",
"4  c #450B01",
"5  c #4B0B00",
"6  c #540600",
"7  c #520B00",
"8  c #5C0C00",
"9  c #590400",
"0  c #431204",
"q  c #4C1302",
"w  c #4D1904",
"e  c #421609",
"r  c #431C0D",
"t  c #4A1C09",
"y  c #49170A",
"u  c #551102",
"i  c #5C1302",
"p  c #511903",
"a  c #5C1A04",
"s  c #521B0B",
"d  c #5B1F0E",
"f  c #620C00",
"g  c #6E0D00",
"h  c #631301",
"j  c #6A1400",
"k  c #641B04",
"l  c #6B1A02",
"z  c #721400",
"x  c #721A02",
"c  c #7A1D02",
"v  c #621E10",
"b  c #4B2008",
"n  c #53220C",
"m  c #5D220B",
"M  c #5A2006",
"N  c #412313",
"B  c #5B2810",
"V  c #642202",
"C  c #6B2203",
"Z  c #6B2B0A",
"A  c #6A270A",
"S  c #7B2101",
"D  c #73260B",
"F  c #7D240C",
"G  c #742E0E",
"H  c #742905",
"J  c #642C14",
"K  c #732E11",
"L  c #792911",
"P  c #6B391C",
"I  c #743414",
"U  c #7C3413",
"Y  c #773817",
"T  c #753619",
"R  c #7E3818",
"E  c #783B17",
"W  c #6E3D20",
"Q  c #77411E",
"!  c #6E4122",
"~  c #794622",
"^  c #831C01",
"/  c #8C1F01",
"(  c #842303",
")  c #842C09",
"_  c #882806",
"`  c #932A03",
"'  c #992D04",
"]  c #952F0A",
"[  c #912501",
"{  c #89320A",
"}  c #9D3103",
"|  c #92340B",
" . c #95360A",
".. c #813614",
"X. c #873810",
"o. c #893B15",
"O. c #863D1A",
"+. c #8A3C19",
"@. c #8B3412",
"#. c #973A12",
"$. c #A03506",
"%. c #AD3906",
"&. c #A33C0B",
"*. c #A53806",
"=. c #B53A06",
"-. c #88441F",
";. c #99461A",
":. c #A3460F",
">. c #AA410C",
",. c #A24B16",
"<. c #AA4C12",
"1. c #A34B1E",
"2. c #AC4819",
"3. c #B84F14",
"4. c #BC5315",
"5. c #B3511B",
"6. c #BD5718",
"7. c #B65112",
"8. c #B6490B",
"9. c #814422",
"0. c #874C25",
"q. c #844A29",
"w. c #9A4C25",
"e. c #944721",
"r. c #995627",
"t. c #8E5431",
"y. c #9E5B31",
"u. c #A45A26",
"i. c #AD5A26",
"p. c #AA5525",
"a. c #BA5D24",
"s. c #B35D2A",
"d. c #A85D30",
"f. c #AC622C",
"g. c #BA652C",
"h. c #B8662C",
"j. c #AB6933",
"k. c #AC6638",
"l. c #A76838",
"z. c #BD6E33",
"x. c #B56A38",
"c. c #BE753F",
"v. c #C25A17",
"b. c #CA601F",
"n. c #DA751E",
"m. c #D8681C",
"M. c #C56120",
"N. c #C36A2C",
"B. c #CC6B2A",
"V. c #C56627",
"C. c #D46D23",
"Z. c #D5782E",
"A. c #C46B30",
"S. c #C57434",
"D. c #CB7233",
"F. c #CE7A35",
"G. c #C37639",
"H. c #CC7A3C",
"J. c #C67B3F",
"K. c #DA7F32",
"L. c #D37E3C",
"P. c #D27731",
"I. c #E67C26",
"U. c #B87F4A",
"Y. c #C77C43",
"T. c #D3813B",
"R. c #DD863A",
"E. c #E78936",
"W. c #CB8142",
"Q. c #CA8649",
"!. c #D68746",
"~. c #DC8C42",
"^. c #D78945",
"/. c #D6904B",
"(. c #DA914D",
"). c #DA9046",
"_. c #C88D53",
"`. c #DD9851",
"'. c #E18F46",
"]. c #EF9B4A",
"[. c #E69242",
"{. c #F09F4C",
"}. c #E99F53",
"|. c #E59953",
" X c #F09F51",
".X c #DFA25F",
"XX c #EAA04F",
"oX c #EBA55A",
"OX c #EFA157",
"+X c #F3AC5A",
"@X c #F5AB5B",
"#X c #F5B25F",
"$X c #FCB25C",
"%X c #CD9B60",
"&X c #E29E60",
"*X c #DFA766",
"=X c #E1A664",
"-X c #EDAC63",
";X c #EDAC6A",
":X c #E6B06D",
">X c #FDBA6B",
",X c #F2B866",
"<X c #F3BA74",
"1X c #FFC363",
"2X c #FFC46C",
"3X c #F9C37A",
"4X c #FFCE7D",
"5X c #F6C580",
"6X c #FFDC8B",
"7X c #FAD791",
"8X c #FFE395",
"9X c #FFE69D",
"0X c #FFEAA2",
/* pixels */
". 2 A.oX!.+.(.s.) o 4 #   ~ #XT.F.g.n & ;   E 1.T.x.d.3Xt.o 7 u ",
"  @ k Q q.V.XXM.-   # .     k.T.u.o.2 X . * h.g.1.z.Y.G.X   X . ",
"X       X L T.V     X .     o >     . . h & . I 1.i.U ;       . ",
"D w ~ f.5 * c o         .             o 4       j & # .       @ ",
":.' ) -XK o k . o       2 X   .       X .     o [ 7 @ o o o # @ ",
"3.@ f &Xv r.+.    o X   o .   .       O i &   = %./ - # l l * ' ",
"^ # 2 Y.L ] 5 # o   .     .           @ x O   5 u O # 6 8 F #.} ",
"~.% . o l #XQ   % # X . X .   . o X         - &     Z `   w I.`.",
"n o &   ,.F.;   o X X . o       # o     O a x 0.t   M ' o * @.5X",
"y.# k u.{.!           X * .     o #.r   i j G $XD.1 # @ # @ f.+X",
"].= h  X5XU.        . X P ;Xq.s c D <Xm l # 7 !.}.d @     + S.T.",
"2.* +.M.7XXXq.O   . o & '.(.>X$XW.u.OXf.@ o o - ( l @       w.#.",
"g s U.P.5.D.2X2.* . . X H R.h.d.g.z...h # X   X . o #       b P ",
"1.H.<X, # ;.y.. o     . X.F.i # * .   . @ #       . o   .     . ",
"| ) s.5 = * 9 &   @     , 7Xq.o X X   # j 0 # .       - 4.t # 8 ",
"A g.K.U h * 8 8 . - .   o c.H.g 4 o   I b.%.D.F @   Y Y.N.6.w.2 ",
"K.~.2X9.2 * & # - 5 .     o 2 l =   R Y.G.=X5X_.# o 9.>Xj.@ k.G.",
"5.&._.e o = k   8 %.o       .     = * D.^.v.E...7 - 8 T.;.o ;.[.",
"2 ..|.` c h } j =.w           w Q.Z.^ V.}.( i 7 @ O . . # 9 c.=X",
"s K $X| f |  .& -       e O - S.8Xz.4.>X<.X   O       o .   y s.",
"_ ^ C o l <.#..       - B.A o J >XC.R.y.&             q +   o I ",
"&       o o 8 &       u M o     I p %                 . .       ",
"j = - o     X .   .   .         q o           : > X o   .     X ",
"$.2.O.e.{ 5   . Z k       .   , B.o.  X       Y.@X& a 5     . - ",
"* k.r.Y 3.& # ' ) #     . . . O , 0 = w n     V 5.# ).m.j o # - ",
". $ !.+.. + % o @ q.1     .         * S.{.k     2 x ,.n.5 & :.<.",
"X - 6XT   4 h   O >X-XO       o # & # *XE.S   1 e.& . !.k   @ 8 ",
"j & h.:.M y.` o   #.Y.-       e k.^ 6.).@Xq   u.4Xu = |.n     i ",
"o @ # ( v.oX>.o . # 6 6 - X   0 i.- G +X3X%   o.1X,.a | o o     ",
"  e.O.@ & 3 #     # 5 j z &     o #   %X9XB @ 1.8XP   $.%.k     ",
"o Y v.j 8 & @ * o @ @ 7 ` *   o C ) 3 p.,Xa.5.:X9Xr.4 B.' ( % 5 ",
"3 y C.D.f.w #.c w @ 8 - z ..Y.;.g.8.3.E.Q.@ ..oX,XY.p.(.*.` j [ "
};
