/* XPM */
static char *result[] = {
/* columns rows colors chars-per-pixel */
"32 32 180 2 ",
"   c #010000",
".  c #0B0000",
"X  c #140100",
"o  c #1C0100",
"O  c #1D0903",
"+  c #230200",
"@  c #2C0300",
"#  c #270801",
"$  c #2B0901",
"%  c #330400",
"&  c #3B0500",
"*  c #340A01",
"=  c #3B0A01",
"-  c #2B1005",
";  c #2F1308",
":  c #371203",
">  c #361A0B",
",  c #381F0C",
"<  c #351F11",
"1  c #430400",
"2  c #4B0500",
"3  c #430A00",
"4  c #4B0B00",
"5  c #500700",
"6  c #5B0200",
"7  c #530B00",
"8  c #5B0B00",
"9  c #441101",
"0  c #4E1002",
"q  c #491806",
"w  c #451508",
"e  c #441D0A",
"r  c #551304",
"t  c #5B1201",
"y  c #531B04",
"u  c #5D1B06",
"i  c #5D1C09",
"p  c #630C00",
"a  c #6D0F01",
"s  c #700E00",
"d  c #631402",
"f  c #6B1501",
"g  c #651D04",
"h  c #6A1B05",
"j  c #601B08",
"k  c #721400",
"l  c #791200",
"z  c #741B02",
"x  c #7A1D01",
"c  c #572006",
"v  c #5C2104",
"b  c #5A260F",
"n  c #5E2D1A",
"m  c #642205",
"M  c #63220A",
"N  c #672908",
"B  c #6B250B",
"V  c #702403",
"C  c #7C2404",
"Z  c #772B07",
"A  c #782807",
"S  c #7A2D0C",
"D  c #7A340E",
"F  c #693116",
"G  c #6A361A",
"H  c #693D1F",
"J  c #633A1A",
"K  c #7C3715",
"L  c #7D371A",
"P  c #7C3D1B",
"I  c #733F21",
"U  c #7C421D",
"Y  c #7C4726",
"T  c #831C02",
"R  c #8E1D01",
"E  c #842403",
"W  c #8B2402",
"Q  c #862B06",
"!  c #8B2904",
"~  c #852E0B",
"^  c #8B2F09",
"/  c #942702",
"(  c #952A03",
")  c #9C2D04",
"_  c #823007",
"`  c #8E3005",
"'  c #82310E",
"]  c #9D3204",
"[  c #94340A",
"{  c #98370D",
"}  c #9B380F",
"|  c #8C3A15",
" . c #813D1D",
".. c #943A13",
"X. c #983810",
"o. c #A13507",
"O. c #A93704",
"+. c #A53A06",
"@. c #A43E0B",
"#. c #A83B0A",
"$. c #AB3C07",
"%. c #B13B06",
"&. c #8E471E",
"*. c #8E4919",
"=. c #8D4213",
"-. c #95451F",
";. c #9C4512",
":. c #9E501A",
">. c #A9440F",
",. c #AB490F",
"<. c #BF4B0B",
"1. c #AE4613",
"2. c #A84A17",
"3. c #A24E1D",
"4. c #B64E14",
"5. c #AC5015",
"6. c #AC521C",
"7. c #B85617",
"8. c #BB5218",
"9. c #BC5A18",
"0. c #904C20",
"q. c #9C4F28",
"w. c #9B4D23",
"e. c #9D5123",
"r. c #975028",
"t. c #9C5329",
"y. c #AF5420",
"u. c #A15228",
"i. c #A85F2B",
"p. c #AA5D26",
"a. c #AC6131",
"s. c #BF7238",
"d. c #C7510D",
"f. c #C65A12",
"g. c #C85B14",
"h. c #D46112",
"j. c #DB6C1C",
"k. c #CD6827",
"l. c #CE6C2A",
"z. c #C2652D",
"x. c #C46F30",
"c. c #C57232",
"v. c #CA7836",
"b. c #C4743C",
"n. c #C5783F",
"m. c #C97435",
"M. c #D47D3A",
"N. c #D27434",
"B. c #B87B49",
"V. c #C17841",
"C. c #CE803D",
"Z. c #DC883E",
"A. c #D7843C",
"S. c #E1873C",
"D. c #E28C3D",
"F. c #C5834E",
"G. c #DB8E46",
"H. c #D38C4B",
"J. c #CC965E",
"K. c #CF995F",
"L. c #D79250",
"P. c #E3924D",
"I. c #E59444",
"U. c #E49C50",
"Y. c #FEAA4F",
"T. c #EDAC5E",
"R. c #ECA35C",
"E. c #F0A551",
"W. c #F7AD5C",
"Q. c #FAB35E",
"!. c #E7A761",
"~. c #EDAB64",
"^. c #F5AA60",
"/. c #EEB263",
"(. c #E9AE71",
"). c #FFC56C",
"_. c #F8C377",
"`. c #FFCF7B",
"'. c #FFD177",
"]. c #FFE08D",
/* pixels */
"o   + d +.P.A.m L.1.] d 4 . o . X 1 2 k O   X w.y.Z.'.F.r * 4 Q ",
"      $ @ e A.X.M B / z W +       o 8 % . X 2 u.Q.0.3.(     . o ",
".         X w .   . ( / &           .   u t . r ~   o +       X ",
"X     o X . X X     * o X + o       . . 3 $   + % X             ",
"&   @ >.d o S W m . .   & 8 @ = X . o o   o . * ( 3   X     .   ",
"&   * ^ o t.Y.f E f 3 X 8 W g y   o +     X   ; k.2 + . o     + ",
"$ X x T . I `.E.b.+ o . * 5 $ .   X $   . .   o j o   f k 9   * ",
"C @ $ * 8 O.p.U N.= + + t *   + & 3.i . . . .       * ) o % X 2 ",
"V . +   @ * X o D + % X R 9 . = R #.M .   . X       X 4 X   X 7 ",
"=   & 7 @ X   o .   X . 8 %     + @       o & r +   + .     X ` ",
"z X   7 x *         + & + M.H & . g g   + 7 p 8 i.- + .     * <.",
"7 . $ k O.3         . @ + F P $ X r W o * 2 o * S.n.$       . C ",
"p o 2 f 3 r E u X                   3 k & X   X z 8.r +       $ ",
"o . + @ X k ! = o       .       o .   + % f o     9 + o         ",
"    y / f % 4 1   .     .  .J . * 3   % 6 2 a C .       .   1 $ ",
"    = d $   o k + + .   @ ~.D.@.& %   + a.m.B.<.3 X o Y | g & * ",
".     . .   # 2 t Z .   X K.l.W .     9 ^.].(.& 8 p % M.K 8 = & ",
"7 *         o . E d.o     b =..       y x A d @ 3 3 o &.J.r.* @ ",
"$ f o * V @ k >.h.$             X = X A u   X X $ .     G | & & ",
"o @ o r l ^ 4.C @.O             Q k 5 r f 1 + & %       . X   + ",
"o     + V.m.9.t o     + +       : h X   % o $ @       . . X .   ",
"    .   < # 2.j.x   . 8 k 2                         + o X o     ",
",   % X   o z : = 5   @ 2 8 o         o X       . 3 8 @ 1 X   , ",
"D . 3 d N f X   d ) X     @ 1 . .     * 1     $ 1.Q 8 8 $     3.",
"8 $ & ( g.y   3 T f X   . $ 5 @   @ @ 4 *     O ..q Q $ .   . o ",
"1   % 1 o     . . & o   o 5 * o X o & @ 2 X     v 9.>       o ;.",
"P 1 a &   + @     *.M.@ .     . 2 p X X 4 d   < n %   X     X G.",
"P.& + f = o = .   e 0.2 +   X = % * o   r f   B.R.@ * p     X s.",
"d .   r 8 + c.i % o E ] x d C %.8 . o   % 2 1 c.m.p h 6.$ .   3 ",
"  . % 1 +   t.1 8 9 ,.f.) $.@ . 7 z   @ 3 8 ! x.).| 2 U.W.Y     ",
"+ . & X   X t.H.2 E s { ] ) + : C $.~ ! @ = s { I.~ & t._.C.: + ",
"E . 3 X   ' z.!.[ ' x.} u 2 p E u 0 ] T @   + S P.w.m ..T./.X.7."
};
